<?xml version="1.0" standalone="no"?>
<!DOCTYPE svg PUBLIC "-//W3C//DTD SVG 20010904//EN"
 "http://www.w3.org/TR/2001/REC-SVG-20010904/DTD/svg10.dtd">
<svg version="1.0" xmlns="http://www.w3.org/2000/svg"
 width="128.000000pt" height="128.000000pt" viewBox="0 0 128.000000 128.000000"
 preserveAspectRatio="xMidYMid meet">

<g transform="translate(0.000000,128.000000) scale(0.100000,-0.100000)"
fill="#000000" stroke="none">
<path d="M75 1208 c-3 -7 -4 -260 -3 -563 l3 -550 578 -3 578 -2 -3 22 -3 23
-552 3 -553 2 -2 537 c-3 503 -4 538 -21 541 -9 2 -19 -2 -22 -10z"/>
<path d="M1034 1100 c-180 -26 -296 -161 -344 -398 -34 -170 -77 -260 -150
-312 -46 -33 -143 -60 -214 -60 -63 0 -89 -12 -79 -36 13 -34 197 -9 286 39
108 57 160 147 200 343 30 144 64 222 126 284 56 56 104 79 192 94 37 6 71 14
75 18 9 9 -15 38 -30 37 -6 -1 -34 -5 -62 -9z"/>
</g>
</svg>
